<?xml version="1.0" encoding="UTF-8" standalone="no"?>
<svg
   xmlns:dc="http://purl.org/dc/elements/1.1/"
   xmlns:cc="http://creativecommons.org/ns#"
   xmlns:rdf="http://www.w3.org/1999/02/22-rdf-syntax-ns#"
   xmlns:svg="http://www.w3.org/2000/svg"
   xmlns="http://www.w3.org/2000/svg"
   viewBox="0 0 828.72101 260.01016"
   height="260.01016"
   width="828.72101"
   xml:space="preserve"
   id="svg2"
   version="1.1"><metadata
     id="metadata8"><rdf:RDF><cc:Work
         rdf:about=""><dc:format>image/svg+xml</dc:format><dc:type
           rdf:resource="http://purl.org/dc/dcmitype/StillImage" /></cc:Work></rdf:RDF></metadata><defs
     id="defs6" /><g
     transform="matrix(1.3333333,0,0,1.3333333,0,4.5002543e-6)"
     id="g10"><g
       id="g12"><g
         id="g14"><path
           id="path16"
           style="fill:none;stroke:#85826f;stroke-width:5.71515179;stroke-linecap:square;stroke-linejoin:miter;stroke-miterlimit:4;stroke-dasharray:none;stroke-opacity:1"
           d="M 448.273,38.184 H 601.675 V 191.586 H 448.273 Z" /></g><g
         id="g18"><path
           id="path20"
           style="fill:none;stroke:#85826f;stroke-width:10.5;stroke-linecap:butt;stroke-linejoin:miter;stroke-miterlimit:4;stroke-dasharray:none;stroke-opacity:1"
           d="m 525.703,57.328 0.328,8.77" /></g><g
         transform="matrix(0.31928,0.610615,-1,0.693235,0,0)"
         id="g22"><path
           id="path24"
           style="fill:#85826e;fill-opacity:1;fill-rule:nonzero;stroke:#85826f;stroke-width:5.24268818;stroke-linecap:butt;stroke-linejoin:miter;stroke-miterlimit:4;stroke-dasharray:none;stroke-opacity:1"
           d="m 551.096,-418.069 c 0.004,2.098 -1.699,3.801 -3.799,3.802 -2.096,-10e-4 -3.8,-1.701 -3.8,-3.803 -0.004,-2.099 1.699,-3.801 3.804,-3.801 2.096,10e-4 3.8,1.702 3.795,3.802 z" /></g><g
         transform="matrix(0.95286,0.240446,-1,0.848413,0,0)"
         id="g26"><path
           id="path28"
           style="fill:#85826e;fill-opacity:1;fill-rule:nonzero;stroke:#85826f;stroke-width:4.39392805;stroke-linecap:butt;stroke-linejoin:miter;stroke-miterlimit:4;stroke-dasharray:none;stroke-opacity:1"
           d="m 556.991,-66.406 c -0.002,1.915 -1.556,3.47 -3.474,3.47 -1.915,0 -3.471,-1.553 -3.473,-3.472 0.002,-1.916 1.556,-3.471 3.474,-3.471 1.919,-10e-4 3.471,1.553 3.473,3.473 z" /></g><g
         id="g30"><path
           id="path32"
           style="fill:#ffffff;fill-opacity:1;fill-rule:nonzero;stroke:#85826f;stroke-width:6;stroke-linecap:butt;stroke-linejoin:miter;stroke-miterlimit:4;stroke-dasharray:none;stroke-opacity:1"
           d="m 534.477,48.477 c 0,4.703 -3.817,8.519 -8.52,8.519 -4.707,0 -8.519,-3.816 -8.519,-8.519 0,-4.707 3.812,-8.52 8.519,-8.52 4.703,0 8.52,3.813 8.52,8.52 z" /></g><g
         id="g34"><path
           id="path36"
           style="fill:none;stroke:#85826f;stroke-width:18.20624924;stroke-linecap:round;stroke-linejoin:round;stroke-miterlimit:4;stroke-dasharray:none;stroke-opacity:1"
           d="m 525.059,71.051 0.593,34.941" /></g><g
         id="g38"><path
           id="path40"
           style="fill:none;stroke:#85826f;stroke-width:10.5;stroke-linecap:square;stroke-linejoin:round;stroke-miterlimit:4;stroke-dasharray:none;stroke-opacity:1"
           d="m 545.332,67.672 15.016,-5.141" /></g><g
         id="g42"><path
           id="path44"
           style="fill:none;stroke:#85826f;stroke-width:10.5;stroke-linecap:square;stroke-linejoin:round;stroke-miterlimit:4;stroke-dasharray:none;stroke-opacity:1"
           d="m 541.977,73.891 14.55,6.328" /></g><g
         id="g46"><path
           id="path48"
           style="fill:none;stroke:#85826f;stroke-width:9;stroke-linecap:square;stroke-linejoin:round;stroke-miterlimit:4;stroke-dasharray:none;stroke-opacity:1"
           d="m 571.328,58.004 10.211,-5.246" /></g><g
         id="g50"><path
           id="path52"
           style="fill:none;stroke:#85826f;stroke-width:9;stroke-linecap:square;stroke-linejoin:round;stroke-miterlimit:4;stroke-dasharray:none;stroke-opacity:1"
           d="m 565.699,82.324 15.617,-1.547" /></g><g
         id="g54"><path
           id="path56"
           style="fill:none;stroke:#85826f;stroke-width:18.20624924;stroke-linecap:round;stroke-linejoin:round;stroke-miterlimit:4;stroke-dasharray:none;stroke-opacity:1"
           d="m 529.137,71.641 3.84,34.734" /></g><g
         id="g58"><path
           id="path60"
           style="fill:#ffffff;fill-opacity:1;fill-rule:nonzero;stroke:#85826f;stroke-width:3.75;stroke-linecap:butt;stroke-linejoin:miter;stroke-miterlimit:4;stroke-dasharray:none;stroke-opacity:1"
           d="m 542.254,70.555 c 0,2.543 -2.063,4.605 -4.606,4.605 -2.543,0 -4.605,-2.062 -4.605,-4.605 0,-2.543 2.062,-4.606 4.605,-4.606 2.543,0 4.606,2.063 4.606,4.606 z" /></g><g
         id="g62"><path
           id="path64"
           style="fill:#ffffff;fill-opacity:1;fill-rule:nonzero;stroke:#85826f;stroke-width:3.375;stroke-linecap:butt;stroke-linejoin:miter;stroke-miterlimit:4;stroke-dasharray:none;stroke-opacity:1"
           d="m 568.629,60.875 c 0,2.262 -1.832,4.094 -4.094,4.094 -2.262,0 -4.094,-1.832 -4.094,-4.094 0,-2.262 1.832,-4.094 4.094,-4.094 2.262,0 4.094,1.832 4.094,4.094 z" /></g><g
         id="g66"><path
           id="path68"
           style="fill:#ffffff;fill-opacity:1;fill-rule:nonzero;stroke:#85826f;stroke-width:3;stroke-linecap:butt;stroke-linejoin:miter;stroke-miterlimit:4;stroke-dasharray:none;stroke-opacity:1"
           d="m 589.891,50.164 c 0,1.977 -1.606,3.582 -3.586,3.582 -1.977,0 -3.582,-1.605 -3.582,-3.582 0,-1.98 1.605,-3.586 3.582,-3.586 1.98,0 3.586,1.606 3.586,3.586 z" /></g><g
         id="g70"><path
           id="path72"
           style="fill:#ffffff;fill-opacity:1;fill-rule:nonzero;stroke:#85826f;stroke-width:3.375;stroke-linecap:butt;stroke-linejoin:miter;stroke-miterlimit:4;stroke-dasharray:none;stroke-opacity:1"
           d="m 566.02,82.344 c 0,2.261 -1.832,4.094 -4.094,4.094 -2.262,0 -4.094,-1.833 -4.094,-4.094 0,-2.262 1.832,-4.094 4.094,-4.094 2.262,0 4.094,1.832 4.094,4.094 z" /></g><g
         id="g74"><path
           id="path76"
           style="fill:#ffffff;fill-opacity:1;fill-rule:nonzero;stroke:#85826f;stroke-width:3;stroke-linecap:butt;stroke-linejoin:miter;stroke-miterlimit:4;stroke-dasharray:none;stroke-opacity:1"
           d="m 589.152,80.258 c 0,1.98 -1.605,3.586 -3.582,3.586 -1.98,0 -3.586,-1.606 -3.586,-3.586 0,-1.977 1.606,-3.582 3.586,-3.582 1.977,0 3.582,1.605 3.582,3.582 z" /></g><g
         transform="scale(0.869048,1)"
         id="g78"><path
           id="path80"
           style="fill:none;stroke:#85826f;stroke-width:6.13047886;stroke-linecap:square;stroke-linejoin:round;stroke-miterlimit:4;stroke-dasharray:none;stroke-opacity:1"
           d="m 712.13,97.504 c 0,52.156 -48.652,94.437 -108.668,94.437 -60.015,0 -108.668,-42.281 -108.668,-94.437 0,-52.156 48.653,-94.438 108.668,-94.438 60.016,0 108.668,42.282 108.668,94.438 z" /></g><path
         id="path82"
         style="fill:#1f55ad;fill-opacity:1;fill-rule:nonzero;stroke:none"
         d="m 445.027,35.359 v 159.45 h 159.45 V 168.234 L 498.176,35.359 Z" /><path
         id="path84"
         style="fill:#fbb20a;fill-opacity:1;fill-rule:nonzero;stroke:none"
         d="M 475.059,139.242 604.781,168 498.223,35.359 Z" /><path
         id="path86"
         style="fill:#1f55ad;fill-opacity:1;fill-rule:nonzero;stroke:none"
         d="M 328.613,79.312 C 341.824,63.754 349.262,50.984 355.207,35.301 H 253.348 v 88.004 c 20.152,-2.723 48.406,-12.371 75.265,-43.993" /><path
         id="path88"
         style="fill:#fbb20a;fill-opacity:1;fill-rule:nonzero;stroke:none"
         d="m 253.359,149.926 h 159.469 v 44.82 H 253.359 Z" /><path
         id="path90"
         style="fill:#85826f;fill-opacity:1;fill-rule:nonzero;stroke:none"
         d="m 361.867,35.301 c -6.097,16.59 -15.359,33.371 -29.437,49.949 -27.723,32.641 -58.422,42.473 -79.082,45.191 v 12.387 H 412.816 V 35.301 Z" /><path
         id="path92"
         style="fill:#ffffff;fill-opacity:1;fill-rule:nonzero;stroke:none"
         d="m 271.758,183.477 c 3.898,0 5.117,-0.797 5.117,-4.274 0,-3.859 -1.301,-4.863 -5.281,-4.91 h -5.324 v 9.141 z m -5.488,-21.129 v 8.132 h 5.238 c 3.519,0 4.695,-0.835 4.695,-4.148 0,-3.23 -1.258,-3.984 -5.113,-3.984 z m 10.015,10.105 c 4.363,0.375 5.828,3.098 5.828,7.711 0,5.953 -2.726,7.547 -9.472,7.547 -5.282,0 -8.047,-0.043 -11.532,-0.336 v -28.922 c 3.102,-0.297 5.621,-0.34 10.231,-0.34 7.297,0 9.894,1.594 9.894,7.547 0,4.152 -1.425,6.289 -4.949,6.625 z" /><path
         id="path94"
         style="fill:#ffffff;fill-opacity:1;fill-rule:nonzero;stroke:none"
         d="m 291.961,172.914 c 0,8.047 1.508,10.52 6.367,10.52 4.906,0 6.418,-2.473 6.418,-10.52 0,-8.051 -1.512,-10.523 -6.418,-10.523 -4.859,0 -6.367,2.472 -6.367,10.523 z m 18.316,0 c 0,11.484 -3.101,15.008 -11.949,15.008 -8.797,0 -11.902,-3.524 -11.902,-15.008 0,-11.488 3.105,-15.008 11.902,-15.008 8.848,0 11.949,3.52 11.949,15.008" /><path
         id="path96"
         style="fill:#ffffff;fill-opacity:1;fill-rule:nonzero;stroke:none"
         d="m 339.238,185.445 c 0,1.258 -0.672,1.93 -1.929,1.93 h -4.153 c -1.133,0 -1.715,-0.504 -2.179,-1.594 l -8.133,-17.73 c -0.543,-1.176 -1.426,-2.977 -1.719,-4.321 h -0.504 c 0.211,1.469 0.254,2.934 0.254,4.36 v 19.285 h -5.156 v -26.996 c 0,-1.258 0.711,-1.926 1.969,-1.926 h 4.07 c 1.129,0 1.672,0.5 2.18,1.59 l 7.878,17.23 c 0.547,1.258 1.383,3.016 2.016,4.567 h 0.5 c -0.125,-1.59 -0.211,-3.141 -0.211,-4.695 v -18.692 h 5.117 z" /><path
         id="path98"
         style="fill:#ffffff;fill-opacity:1;fill-rule:nonzero;stroke:none"
         d="m 369.203,185.445 c 0,1.258 -0.672,1.93 -1.93,1.93 h -4.148 c -1.137,0 -1.723,-0.504 -2.18,-1.594 l -8.133,-17.73 c -0.546,-1.176 -1.425,-2.977 -1.718,-4.321 h -0.504 c 0.211,1.469 0.254,2.934 0.254,4.36 v 19.285 h -5.16 v -26.996 c 0,-1.258 0.714,-1.926 1.972,-1.926 h 4.067 c 1.129,0 1.675,0.5 2.175,1.59 l 7.883,17.23 c 0.547,1.258 1.383,3.016 2.012,4.567 h 0.504 c -0.129,-1.59 -0.211,-3.141 -0.211,-4.695 v -18.692 h 5.117 z" /><path
         id="path100"
         style="fill:#85826f;fill-opacity:1;fill-rule:nonzero;stroke:none"
         d="m 21.305,176.219 c 0,8.469 -2.813,11.699 -10.485,11.699 C 2.895,187.918 0,184.688 0,176.219 v -17.785 h 4.195 v 17.785 c 0,5.953 1.637,7.965 6.457,7.965 4.739,0 6.461,-2.012 6.461,-7.965 v -17.785 h 4.192 z" /><path
         id="path102"
         style="fill:#85826f;fill-opacity:1;fill-rule:nonzero;stroke:none"
         d="m 50.801,185.738 c 0,1.09 -0.543,1.633 -1.551,1.633 h -3.984 c -0.926,0 -1.426,-0.418 -1.805,-1.297 l -9.016,-19.715 c -0.504,-1.086 -1.383,-2.808 -1.718,-4.023 h -0.586 c 0.168,1.34 0.207,2.726 0.207,4.023 v 21.012 h -4.192 v -27.297 c 0,-1.094 0.586,-1.64 1.594,-1.64 h 3.859 c 0.922,0 1.422,0.421 1.844,1.3 l 8.766,19.207 c 0.543,1.176 1.383,2.852 2.011,4.325 h 0.629 c -0.125,-1.512 -0.211,-2.981 -0.211,-4.489 v -20.343 h 4.153 z" /><path
         id="path104"
         style="fill:#85826f;fill-opacity:1;fill-rule:nonzero;stroke:none"
         d="m 57.863,158.434 h 4.195 v 28.938 h -4.195 z" /><path
         id="path106"
         style="fill:#85826f;fill-opacity:1;fill-rule:nonzero;stroke:none"
         d="m 82.066,186.199 c -0.207,0.668 -0.836,1.172 -1.589,1.172 h -4.114 c -0.754,0 -1.383,-0.504 -1.593,-1.172 l -8.555,-27.765 h 4.32 l 6.539,22.523 c 0.297,1.047 0.547,2.141 0.801,3.188 h 1.133 c 0.207,-1.047 0.5,-2.141 0.797,-3.188 l 6.5,-22.523 h 4.316 z" /><path
         id="path108"
         style="fill:#85826f;fill-opacity:1;fill-rule:nonzero;stroke:none"
         d="m 112.781,187.121 c -3.816,0.336 -8.261,0.336 -12.414,0.336 -3.605,0 -5.789,-2.016 -5.828,-5.203 v -18.703 c 0.039,-3.184 2.262,-5.199 5.828,-5.199 4.153,0 8.598,0 12.414,0.336 l -0.211,3.273 h -11.488 c -1.68,0 -2.309,0.711 -2.309,2.68 v 5.789 h 12.204 v 3.398 H 98.773 v 7.379 c 0,1.973 0.629,2.684 2.309,2.684 h 11.488 z" /><path
         id="path110"
         style="fill:#85826f;fill-opacity:1;fill-rule:nonzero;stroke:none"
         d="m 128.395,171.855 c 4.07,-0.043 5.41,-1.171 5.41,-5.156 0,-3.988 -1.34,-5.035 -5.41,-5.035 -2.266,0 -4.278,0 -5.872,0.043 v 10.148 z m 6.207,15.516 -2.473,-9.016 c -0.672,-2.097 -1.805,-2.894 -3.649,-2.894 l -5.957,-0.039 v 11.949 h -4.152 v -28.937 c 3.188,-0.332 5.367,-0.375 10.109,-0.375 6.793,0 9.559,1.886 9.559,8.386 0,4.571 -1.469,6.879 -5.324,7.383 v 0.207 c 1.426,0.422 3.019,1.68 3.648,4.192 l 2.727,9.144 z" /><path
         id="path112"
         style="fill:#85826f;fill-opacity:1;fill-rule:nonzero;stroke:none"
         d="m 161.332,158.812 -0.254,3.063 c -2.433,-0.082 -5.578,-0.211 -8.301,-0.211 -3.945,0 -5.453,0.168 -5.453,4.027 0,2.977 1.047,3.774 3.481,4.403 l 5.746,1.594 c 4.484,1.214 5.867,3.902 5.867,8.218 0,6.668 -2.895,7.969 -9.852,7.969 -1.847,0 -5.074,-0.082 -9.101,-0.84 l 0.293,-3.101 c 5.242,0.168 6.711,0.211 8.89,0.211 4.239,-0.043 5.497,-0.672 5.497,-4.278 0,-3.148 -1.094,-3.816 -3.442,-4.445 l -5.871,-1.637 c -4.234,-1.176 -5.742,-3.816 -5.742,-8.223 0,-6.707 2.976,-7.628 9.515,-7.628 2.727,0 5.79,0.168 8.727,0.878" /><path
         id="path114"
         style="fill:#85826f;fill-opacity:1;fill-rule:nonzero;stroke:none"
         d="m 168.012,158.434 h 4.191 v 28.938 h -4.191 z" /><path
         id="path116"
         style="fill:#85826f;fill-opacity:1;fill-rule:nonzero;stroke:none"
         d="m 190.074,162.168 v 25.203 h -4.234 v -25.203 h -9.102 v -3.734 h 22.52 v 3.734 z" /><path
         id="path118"
         style="fill:#85826f;fill-opacity:1;fill-rule:nonzero;stroke:none"
         d="m 213.992,155.293 c -0.754,0 -1.09,-0.34 -1.09,-1.133 v -2.265 c 0,-0.672 0.336,-1.133 1.09,-1.133 h 1.344 c 0.711,0 1.129,0.461 1.129,1.133 v 2.265 c 0,0.793 -0.418,1.133 -1.129,1.133 z m -1.804,8.723 c -0.208,-0.758 -0.5,-1.598 -0.668,-2.352 h -1.133 c -0.254,0.754 -0.504,1.594 -0.715,2.352 L 206.316,175 h 9.266 z m -5.618,-8.723 c -0.758,0 -1.09,-0.34 -1.09,-1.133 v -2.265 c 0,-0.672 0.332,-1.133 1.09,-1.133 h 1.34 c 0.758,0 1.09,0.461 1.09,1.133 v 2.265 c 0,0.793 -0.332,1.133 -1.09,1.133 z m -1.386,23.355 -2.684,8.723 h -4.32 l 9.101,-27.805 c 0.168,-0.711 0.797,-1.132 1.512,-1.132 h 4.277 c 0.754,0 1.34,0.421 1.551,1.132 l 9.102,27.805 h -4.321 l -2.683,-8.723 z" /><path
         id="path120"
         style="fill:#85826f;fill-opacity:1;fill-rule:nonzero;stroke:none"
         d="m 235.977,162.168 v 25.203 h -4.235 v -25.203 h -9.097 v -3.734 h 22.519 v 3.734 z" /><path
         id="path122"
         style="fill:#ffffff;fill-opacity:1;fill-rule:nonzero;stroke:none"
         d="m 471.855,179.188 h -10.75 l -2.394,8.191 h -5.379 l 8.695,-27.594 c 0.254,-0.926 0.883,-1.387 1.891,-1.387 h 5.125 c 1.008,0 1.637,0.461 1.887,1.387 l 8.695,27.594 h -5.375 z m -1.261,-4.325 -2.895,-9.996 c -0.394,-1.512 -0.605,-2.34 -0.633,-2.48 h -1.132 l -0.672,2.48 -2.899,9.996 z" /><path
         id="path124"
         style="fill:#ffffff;fill-opacity:1;fill-rule:nonzero;stroke:none"
         d="m 483.102,158.398 h 5.25 v 28.98 h -5.25 z" /><path
         id="path126"
         style="fill:#ffffff;fill-opacity:1;fill-rule:nonzero;stroke:none"
         d="m 505.289,175.91 -5.84,-1.848 c -2.097,-0.671 -3.597,-1.679 -4.492,-3.023 -0.898,-1.371 -1.344,-3.164 -1.344,-5.375 0,-3.164 0.727,-5.25 2.184,-6.258 1.484,-1.008 4.074,-1.511 7.769,-1.511 3.555,0 6.594,0.32 9.114,0.964 l -0.336,3.739 c -3.192,-0.114 -6.063,-0.168 -8.61,-0.168 -1.933,0 -3.218,0.195 -3.863,0.59 -0.644,0.363 -0.969,1.273 -0.969,2.726 0,1.207 0.227,2.059 0.676,2.563 0.473,0.476 1.328,0.91 2.559,1.304 l 5.586,1.719 c 2.215,0.703 3.754,1.738 4.621,3.109 0.894,1.344 1.344,3.121 1.344,5.336 0,3.192 -0.754,5.348 -2.266,6.465 -1.512,1.094 -4.188,1.641 -8.024,1.641 -3.191,0 -6.328,-0.309 -9.41,-0.926 l 0.34,-3.863 c 4.899,0.113 7.965,0.168 9.195,0.168 1.934,0 3.223,-0.223 3.864,-0.672 0.644,-0.449 0.968,-1.399 0.968,-2.856 0,-1.234 -0.226,-2.086 -0.671,-2.562 -0.422,-0.477 -1.219,-0.895 -2.395,-1.262 z" /></g></g></svg>